<svg width="164" height="72" viewBox="0 0 164 72" fill="none" xmlns="http://www.w3.org/2000/svg">
<g filter="url(#filter0_d_9517_207635)">
<g clip-path="url(#clip0_9517_207635)">
<mask id="path-3-inside-1_9517_207635" fill="white">
<path d="M1.71436 0H161.714V21.7143H1.71436V0Z"/>
</mask>
<path d="M1.71436 0H161.714V21.7143H1.71436V0Z" fill="#121D39"/>
<path d="M161.714 21.7143V21.2857H1.71436V21.7143V22.1429H161.714V21.7143Z" fill="#2A417E" mask="url(#path-3-inside-1_9517_207635)"/>
<rect x="6.28589" y="5.14258" width="38.2857" height="11.4286" rx="5.71429" fill="#2A417E"/>
<path d="M15.1431 7.85631L15.8705 9.70037L17.7146 10.4277L15.8705 11.1551L15.1431 12.9992L14.4158 11.1551L12.5717 10.4277L14.4158 9.70037L15.1431 7.85631ZM12.1172 12.116L10.8574 12.5706L12.1172 13.0251L12.5717 14.2849L13.0263 13.0251L14.286 12.5706L13.0263 12.116L12.5717 10.8563L12.1172 12.116ZM11.8022 8.37247L10.8574 8.71345L11.8022 9.05443L12.1431 9.99916L12.4841 9.05443L13.4289 8.71345L12.4841 8.37247L12.1431 7.42773L11.8022 8.37247Z" fill="#6581CD"/>
<rect x="20.0002" y="9.71484" width="20" height="2.28571" rx="1.14286" fill="#6581CD"/>
<path d="M51.2859 7.35742H57.2859C57.5609 7.35742 57.7859 7.58242 57.7859 7.85742V12.3574C57.7859 12.6324 57.5609 12.8574 57.2859 12.8574H52.2859L50.7859 14.3574V7.85742C50.7859 7.58242 51.0109 7.35742 51.2859 7.35742ZM57.285 12.3574L57.2859 12.3565V7.85831L57.285 7.85742H51.2868L51.2859 7.85831V13.1503L52.0788 12.3574H57.285Z" fill="#6581CD"/>
<rect x="60.5715" y="9.71484" width="20" height="2.28571" rx="1.14286" fill="#6581CD"/>
<rect width="160" height="25.7143" transform="translate(1.71436 21.7148)" fill="#121D39"/>
<rect x="11.0715" y="26.5014" width="141.286" height="16.1429" rx="0.928571" fill="#0D1426"/>
<rect x="11.0715" y="26.5014" width="141.286" height="16.1429" rx="0.928571" stroke="#2A417E" stroke-width="0.428571"/>
<rect x="15.4287" y="32.8594" width="94.8571" height="3.42857" rx="1.71429" fill="#2A417E"/>
<path d="M149.836 41.8382L149.432 41.4347L151.147 39.7204L151.55 40.1239L149.836 41.8382ZM151.259 38.1204L150.856 37.7168L147.429 41.1436L147.832 41.5472L151.259 38.1204Z" fill="#3958AC"/>
<rect width="160" height="20.5714" transform="translate(1.71436 47.4277)" fill="#121D39"/>
<rect x="6.28589" y="52" width="42.2857" height="11.4286" rx="5.71429" fill="#6581CD"/>
<path d="M15.1429 54.7137L15.8703 56.5578L17.7143 57.2852L15.8703 58.0125L15.1429 59.8566L14.4155 58.0125L12.5715 57.2852L14.4155 56.5578L15.1429 54.7137ZM12.1169 58.9735L10.8572 59.428L12.1169 59.8826L12.5715 61.1423L13.026 59.8826L14.2857 59.428L13.026 58.9735L12.5715 57.7137L12.1169 58.9735ZM11.8019 55.2299L10.8572 55.5709L11.8019 55.9119L12.1429 56.8566L12.4839 55.9119L13.4286 55.5709L12.4839 55.2299L12.1429 54.2852L11.8019 55.2299Z" fill="#0D1426"/>
<rect x="20" y="56.5723" width="20" height="2.28571" rx="1.14286" fill="#0D1426"/>
</g>
<rect x="1.92864" y="0.214286" width="159.571" height="67.5714" stroke="#2A417E" stroke-width="0.428571"/>
</g>
<defs>
<filter id="filter0_d_9517_207635" x="6.96182e-05" y="0" width="163.429" height="71.4286" filterUnits="userSpaceOnUse" color-interpolation-filters="sRGB">
<feFlood flood-opacity="0" result="BackgroundImageFix"/>
<feColorMatrix in="SourceAlpha" type="matrix" values="0 0 0 0 0 0 0 0 0 0 0 0 0 0 0 0 0 0 127 0" result="hardAlpha"/>
<feOffset dy="1.71429"/>
<feGaussianBlur stdDeviation="0.857143"/>
<feColorMatrix type="matrix" values="0 0 0 0 0 0 0 0 0 0 0 0 0 0 0 0 0 0 0.06 0"/>
<feBlend mode="normal" in2="BackgroundImageFix" result="effect1_dropShadow_9517_207635"/>
<feBlend mode="normal" in="SourceGraphic" in2="effect1_dropShadow_9517_207635" result="shape"/>
</filter>
<clipPath id="clip0_9517_207635">
<rect x="1.71436" width="160" height="68" fill="white"/>
</clipPath>
</defs>
</svg>
